PathFileType	4	(X/Y/Z)	Kaydara																																																																																																																									
DataRate	CameraRate	NumFrames	NumMarkers	Units	OrigDataRate	OrigDataStartFrame	OrigNumFrames																																																																																																																					
30	30	7	41	mm	30	266	354																																																																																																																					
Frame#	Time	SALE_LFHD			SALE_RFHD			SALE_LBHD			SALE_RBHD			SALE_LFTShould			SALE_RFTShould			SALE_LRRShould			SALE_RRRShould			SALE_T10			SALE_STRN			SALE_TRUN			SALE_LSHO			SALE_LUPA			SALE_LELB			SALE_LFRM			SALE_LWRA			SALE_LWRB			SALE_LFIN			SALE_RSHO			SALE_RUPA			SALE_RELB			SALE_RFRM			SALE_RWRB			SALE_RFIN			SALE_LFWT			SALE_RFWT			SALE_LBWT			SALE_RBWT			SALE_LTHI			SALE_LKNE			SALE_RWRA			SALE_LSHN			SALE_LANK			SALE_LHEE			SALE_LTOE			SALE_RTHI			SALE_RKNE			SALE_RSHN			SALE_RANK			SALE_RHEE			SALE_RTOE		
		X1	Y1	Z1	X2	Y2	Z2	X3	Y3	Z3	X4	Y4	Z4	X5	Y5	Z5	X6	Y6	Z6	X7	Y7	Z7	X8	Y8	Z8	X9	Y9	Z9	X10	Y10	Z10	X11	Y11	Z11	X12	Y12	Z12	X13	Y13	Z13	X14	Y14	Z14	X15	Y15	Z15	X16	Y16	Z16	X17	Y17	Z17	X18	Y18	Z18	X19	Y19	Z19	X20	Y20	Z20	X21	Y21	Z21	X22	Y22	Z22	X23	Y23	Z23	X24	Y24	Z24	X25	Y25	Z25	X26	Y26	Z26	X27	Y27	Z27	X28	Y28	Z28	X29	Y29	Z29	X30	Y30	Z30	X31	Y31	Z31	X32	Y32	Z32	X33	Y33	Z33	X34	Y34	Z34	X35	Y35	Z35	X36	Y36	Z36	X37	Y37	Z37	X38	Y38	Z38	X39	Y39	Z39	X40	Y40	Z40	X41	Y41	Z41
																																																																																																																												
266	8.843	198.22224	1450.05951	884.11652	68.90628	1449.84329	894.59351	188.74773	1553.22388	801.40305	63.01499	1547.68036	814.75235	193.68635	1317.30728	705.40611	52.8325	1314.4133	722.07703	176.37938	1390.7196	606.10817	28.29474	1393.54874	630.52086	91.14826	1246.80504	531.68175	121.98844	1242.11739	753.22906	122.2138	1153.09921	786.8782	299.99868	1353.629	625.63431	328.8242	1138.82538	580.4657	304.92977	1031.69815	556.76056	335.44186	924.41154	570.2367	283.38322	781.24855	634.99172	338.50674	776.56631	581.91063	342.44522	728.34694	624.91035	-58.79728	1355.62683	675.28557	-108.22504	1130.39726	608.15418	-138.9958	1030.56602	655.88951	-135.82723	915.02991	657.74277	-151.6339	784.81476	721.93718	-156.13734	754.96323	782.17743	239.81749	923.64464	726.37405	-38.91426	919.32655	718.06923	188.73112	965.83359	551.65157	10.60538	976.25679	547.96406	243.00543	595.47928	669.48166	221.43333	468.49762	812.39471	-100.44317	803.3046	774.54567	217.69089	284.37029	880.72777	214.50848	96.00279	904.39201	180.798	29.70453	859.35471	177.7216	96.19047	1042.64893	-32.97733	685.70862	527.52449	-13.73622	516.07353	597.08118	48.16016	329.3718	535.32539	12.625	100.37781	415.57785	13.14025	49.97235	522.4609	65.06057	46.58338	336.94302
267	8.877	201.11841	1447.32407	911.89354	71.6064	1447.86469	921.06911	193.04646	1550.87784	829.35898	67.14375	1546.04858	841.3945	197.31192	1314.151	733.1118	56.51469	1312.17453	748.94096	182.0302	1387.5592	633.31032	33.35456	1391.90765	656.38786	96.41889	1242.89436	560.85114	124.98065	1239.92508	781.81824	124.38543	1151.54045	816.86356	304.91447	1348.42987	654.03427	332.98939	1132.52403	611.4481	308.90583	1025.13756	589.39793	339.32106	918.21342	602.05498	285.99281	774.76372	664.92653	341.98959	770.4718	612.51122	345.67726	721.97174	654.89586	-54.59836	1353.44574	700.75127	-102.67454	1126.79176	634.54082	-133.28099	1027.24716	682.27158	-130.36383	912.14546	682.46223	-147.86252	781.17966	743.46077	-152.04131	749.5118	803.07808	241.71335	921.96159	762.78961	-36.55845	914.91066	750.65819	194.20202	963.30605	586.54919	14.2003	971.28021	580.17105	243.07375	595.07435	699.37447	226.00307	463.94791	835.57274	-96.33983	798.07968	796.99516	219.43415	279.46987	900.1049	212.791	93.0903	919.97116	172.99656	37.81317	869.47441	189.51359	68.10673	1063.32428	-25.93662	684.61708	556.52657	-9.87691	513.93486	621.71215	50.91821	328.07903	552.1534	12.81496	106.03167	419.45873	12.58095	49.79097	523.71136	64.20381	56.32466	338.87127
268	8.91	204.50932	1448.30994	940.48218	74.95177	1449.96628	948.45612	198.08857	1552.50839	858.58055	72.03791	1548.741	869.46968	201.20527	1316.13571	761.61621	60.35192	1315.88333	776.42715	187.30925	1389.53003	661.55167	38.28248	1395.08682	683.33252	101.51957	1244.76158	589.46178	128.16977	1242.96104	810.90515	126.59395	1155.13016	847.32201	309.82449	1349.02283	683.03711	337.36694	1132.13989	643.70193	313.7561	1024.36768	623.32752	343.77556	918.10257	635.60955	290.16342	774.20982	697.39105	346.64268	770.37247	645.32227	350.20016	721.60156	687.2496	-50.37161	1356.72165	726.97525	-96.39502	1128.64357	661.23756	-126.36324	1029.48593	708.99689	-123.75073	914.96902	705.98663	-141.84196	781.76949	762.34146	-147.70343	748.26096	820.46524	244.10381	928.22556	798.7529	-34.23014	915.99411	783.31787	199.14534	968.33496	621.47423	19.04757	972.14516	613.23627	249.50706	600.71583	725.66719	227.81794	465.03296	857.3114	-91.62719	796.84113	816.81015	217.69161	278.13965	916.06689	209.92319	90.83793	928.89359	171.94019	40.6502	874.41681	178.43273	59.60835	1069.6389	-17.69799	686.19347	589.01745	-4.91409	514.69109	653.04222	54.05282	328.57609	575.04517	11.11397	116.86444	427.7673	11.5559	50.30616	527.21733	60.64555	72.78035	343.3316
269	8.943	208.49302	1453.43994	969.36081	78.94116	1456.2854	976.69746	203.47176	1558.0014	888.01697	77.42473	1555.46341	898.24036	205.44436	1323.49701	790.75699	64.40361	1323.82019	804.66797	192.23629	1395.84671	690.2758	43.35522	1402.00745	710.85182	106.23971	1251.11664	618.30143	131.39465	1251.76422	839.84535	129.22955	1164.77913	878.10471	314.49923	1355.57968	713.00827	341.82384	1138.42979	676.32385	318.21936	1030.67802	656.77773	348.71983	924.73122	669.98756	295.83361	780.92499	733.03116	352.27051	777.19597	680.74715	355.83817	728.38554	722.77817	-46.08648	1365.20782	754.06715	-89.23305	1137.33231	687.55112	-118.8084	1037.7314	734.38881	-116.32383	923.84644	728.07793	-136.04634	788.76999	778.94287	-142.79213	752.64511	835.40901	247.94285	938.59192	832.00905	-29.73702	919.88869	816.08551	202.39271	977.58514	654.96368	23.41412	977.21298	646.43219	257.29948	611.83769	752.16965	229.54048	471.2059	876.86363	-86.39647	801.14944	834.66637	218.78454	280.1227	926.81862	211.13577	91.58599	930.34889	173.70296	40.49175	874.03877	175.90582	59.3861	1069.41261	-9.68574	687.248	625.19375	1.40827	515.5685	692.93793	57.7064	329.43142	604.94629	8.31331	131.43735	440.95066	10.15549	50.25997	532.1236	55.36453	95.74264	352.03968
270	8.977	212.8883	1460.62195	997.34871	83.4603	1464.64508	1004.77371	208.77466	1564.75861	915.56297	82.66773	1563.49274	925.87196	210.13086	1332.62863	821.16455	68.49755	1333.26126	833.24493	196.80351	1402.24899	719.07562	48.25876	1408.48206	738.48106	111.15022	1257.02492	647.29797	134.91431	1262.43362	869.534	132.31936	1175.97313	909.07364	318.97568	1364.15131	743.36884	347.22301	1147.51793	709.17358	323.57864	1040.0782	689.17084	354.44126	934.05518	704.89967	302.90991	791.18309	771.17477	358.79612	786.60141	718.70697	362.17937	738.25531	761.68892	-41.62712	1374.43863	781.76659	-83.72596	1148.87856	713.5994	-112.1609	1047.94594	758.19252	-109.45094	934.19968	748.98308	-129.94496	797.85973	795.98	-137.2149	758.74664	850.48492	252.05299	947.63313	864.17358	-25.04641	924.48914	846.81122	205.57714	985.18761	687.08412	28.38375	982.21161	678.02818	265.54123	620.92796	773.08617	237.26255	475.15839	889.8838	-81.40955	808.14209	852.50565	225.62084	280.85091	932.77977	214.83992	91.80425	930.44502	176.92993	40.4123	873.2267	178.8896	59.59424	1068.25981	-2.40909	685.67665	664.58679	6.94195	514.86496	740.4261	58.83226	329.13189	641.45714	7.52421	148.89647	457.69352	8.91035	50.42435	537.25655	55.51014	123.45304	367.23431
271	9.01	217.12044	1467.9039	1024.77928	87.75881	1472.724	1032.34756	213.3556	1570.39215	940.94284	87.31302	1569.87	951.48842	214.39316	1339.66522	852.02805	72.45059	1339.05334	862.75986	201.70088	1405.52383	748.26248	53.1433	1411.54968	765.94955	117.09219	1259.41124	677.0314	138.72989	1270.21301	899.90585	135.97082	1183.98514	940.17273	323.87108	1369.8378	774.88693	353.53893	1153.89404	741.61285	330.49271	1046.62598	720.74501	361.24443	939.98497	740.21164	309.18041	798.90701	810.78255	365.56499	792.6564	758.59917	369.17507	745.99838	803.19923	-37.15668	1379.51202	809.44656	-79.00735	1156.31821	738.67233	-107.44096	1053.9238	780.60417	-104.1726	940.22041	769.52133	-124.92739	803.22685	814.18167	-131.9974	761.70303	867.26761	256.67576	951.44363	896.01639	-20.65243	926.91208	875.89401	210.68239	988.56628	718.58292	34.29714	983.78647	707.62039	271.25998	626.16314	793.70232	242.20591	475.3619	904.68536	-77.38369	812.67014	871.59073	228.2892	280.30628	941.03966	215.8572	91.53543	932.54257	178.05998	40.90665	873.72299	178.11399	58.02833	1069.42139	3.57064	679.39804	705.29129	6.30938	510.76328	791.94382	53.84989	326.8726	683.96729	8.85863	166.95744	479.80373	8.79965	50.04703	544.17137	61.44987	152.21701	392.16766
272	9.043	220.93309	1473.81226	1052.33963	91.41823	1478.70941	1059.4239	217.25071	1573.86124	965.5378	91.13365	1573.50586	975.821	218.5775	1341.31195	882.52693	76.3268	1340.1181	891.64436	207.16501	1405.42007	777.82806	58.23438	1411.25092	793.33649	124.15587	1258.63701	706.09657	142.55094	1271.62193	930.18127	139.56005	1185.38429	970.44617	329.1497	1370.99625	806.91505	360.91915	1155.36507	774.53331	338.65673	1048.01971	753.01048	369.03999	940.74791	776.36681	315.65716	802.04308	850.61249	372.93983	794.01718	799.8864	376.36711	749.66263	846.81641	-32.51102	1379.1069	836.39389	-74.04932	1157.54494	762.4649	-103.62776	1054.49112	801.92238	-100.41273	940.63553	789.94362	-120.9824	803.17459	833.55896	-128.00759	760.68993	886.00311	261.15469	950.77377	926.01692	-16.12638	925.15427	902.7343	215.78554	988.25294	748.09471	39.37913	980.91881	734.29459	275.76891	629.02328	813.98384	247.02236	474.38267	919.27605	-74.29206	812.78206	891.57906	230.62384	278.52652	949.51782	215.02939	90.70647	935.29114	176.98212	41.61765	875.0663	176.94262	56.02775	1071.70021	8.4087	667.55524	745.41092	-0.66417	505.44922	842.63077	46.3971	322.33341	732.01385	10.05303	183.99441	511.3266	8.61687	51.22959	555.32703	67.99399	181.23901	428.46165
